<svg id="Flat" height="40" viewBox="0 0 512 512" width="40" xmlns="http://www.w3.org/2000/svg" xmlns:xlink="http://www.w3.org/1999/xlink"><radialGradient id="radial-gradient" cx="62.004" cy="74.294" gradientUnits="userSpaceOnUse" r="487.074"><stop offset="0" stop-color="#f27373"/><stop offset=".30379" stop-color="#f06f71"/><stop offset=".61094" stop-color="#e9636a"/><stop offset=".91876" stop-color="#df4f5f"/><stop offset="1" stop-color="#db485b"/></radialGradient><radialGradient id="radial-gradient-2" cx="136.186" cy="134.824" gradientUnits="userSpaceOnUse" r="302.549"><stop offset="0" stop-color="#fee962"/><stop offset=".34317" stop-color="#fee661"/><stop offset=".5882" stop-color="#fddd5e"/><stop offset=".80199" stop-color="#fccd59"/><stop offset=".99789" stop-color="#fab751"/><stop offset="1" stop-color="#fab751"/></radialGradient><g id="Sun"><path d="m437.73585 256c0-21.88447 37.766-49.48565 31.35422-69.23265-6.64531-20.46641-53.64109-20.54527-66.039-37.58082-12.52185-17.20583 1.83785-61.88826-15.368-74.41011-17.03547-12.39785-55.036 14.97716-75.50231 8.33185-19.74708-6.41179-34.29619-51.10827-56.18076-51.10827s-36.43352 44.69645-56.18052 51.10819c-20.4664 6.64532-58.467-20.72966-75.50259-8.33173-17.20583 12.52184-2.84612 57.20427-15.368 74.4101-12.39782 17.03544-59.39355 17.1142-66.03889 37.58049-6.41176 19.74707 31.35415 47.34838 31.35415 69.23295s-37.766 49.48565-31.35422 69.23265c6.64531 20.46641 53.64109 20.54527 66.039 37.58082 12.52185 17.20583-1.83785 61.88826 15.368 74.4101 17.03546 12.39786 55.036-14.97715 75.50231-8.33184 19.74708 6.41179 34.29619 51.10827 56.18076 51.10827s36.43352-44.69646 56.18052-51.10819c20.4664-6.64532 58.467 20.72966 75.50259 8.33173 17.20583-12.52185 2.84612-57.20427 15.368-74.41011 12.39783-17.03543 59.39355-17.11419 66.03889-37.58043 6.41176-19.74712-31.35415-47.34843-31.35415-69.233z" fill="url(#radial-gradient)"/><circle cx="256" cy="256" fill="url(#radial-gradient-2)" r="133.306"/></g></svg>