<svg id="Flat" height="512" viewBox="0 0 512 512" width="512" xmlns="http://www.w3.org/2000/svg" xmlns:xlink="http://www.w3.org/1999/xlink"><linearGradient id="linear-gradient" gradientUnits="userSpaceOnUse" x1="261.293" x2="371.317" y1="169.376" y2="65.568"><stop offset="0" stop-color="#acd668"/><stop offset=".15386" stop-color="#b1dd6b"/><stop offset=".6273" stop-color="#beec72"/><stop offset="1" stop-color="#c2f275"/></linearGradient><linearGradient id="linear-gradient-2" gradientUnits="userSpaceOnUse" x1="208.097" x2="275.123" y1="124.596" y2="124.596"><stop offset="0" stop-color="#d48574"/><stop offset=".17828" stop-color="#d17e70"/><stop offset=".43905" stop-color="#c86a67"/><stop offset=".74899" stop-color="#b94a56"/><stop offset=".90183" stop-color="#b0384d"/></linearGradient><radialGradient id="radial-gradient" cx="104.352" cy="139.344" gradientUnits="userSpaceOnUse" r="387.599"><stop offset="0" stop-color="#f27373"/><stop offset=".42503" stop-color="#f17172"/><stop offset=".6569" stop-color="#ec696d"/><stop offset=".84161" stop-color="#e55b66"/><stop offset="1" stop-color="#db485b"/></radialGradient><g id="Apple"><path d="m382.23756 71.58311c17.41293 24.046-34.51756 90.06806-57.33956 103.99469-40.10864 24.47537-104.018-47.85108-44.96725-90.91592 33.07742-24.12288 89.62744-30.58808 102.30681-13.07877z" fill="url(#linear-gradient)"/><path d="m267.7295 156.186c1.30273-1.80762 32.28906-44.51124 65.501-65.35547 4.48674-2.815 8.72916 3.96643 4.252 6.77636-31.90039 20.02149-62.95313 62.82666-63.2627 63.25684-3.0532 4.23288-9.6288-.32347-6.4903-4.67773z" fill="#90c050"/><path d="m275.12305 169.04248c-.16015-2.61816-4.40722-64.40039-45.82129-88.50928-16.08313-9.3644-30.2205 14.78044-14.07666 24.18116 28.38819 16.52417 31.93116 65.43017 31.97364 66.0642z" fill="url(#linear-gradient-2)"/><path d="m285.60547 141.48193a72.77964 72.77964 0 0 1 -58.29345-.23706c-110.76911-48.95939-203.27476 87.31422-104.2146 242.79444 30.84765 48.41674 56.21631 65.72851 67.42651 65.77417 9.37451.03808 12.1582-6.01734 20.46094-8.22608 16.083-4.279 22.023 8.56128 44.21826 8.48926 19.86817.22607 25.62354-9.44678 38.6919-8.958 13.06787.48877 14.77685 9.1753 25.98681 9.221 11.21045.04565 36.71924-17.05908 67.95947-65.22339 100.28174-154.60748 9.00147-291.72227-102.23584-243.63434z" fill="url(#radial-gradient)"/></g></svg>